# xmcd
#
# Track frame offsets: 
#        150
#        16877
#        32776
#        48329
#        63809
#        90884
#        121614
#
# Disc length: 1925 seconds
#
# Revision: 0
# Processed by: cddbd v1.5.2PL0 Copyright (c) Steve Scherf et al.
# Submitted via: ExactAudioCopy v1.0b3
#
DISCID=43078307
DTITLE=Spike - A Moment Of Love - CD 1
DYEAR=1900
DGENRE=
TTITLE0=A Moment Of Love (Radio Edit)
TTITLE1=A Moment Of Love (UK Radio Edit)
TTITLE2=A Moment Of Love (Love Radio Edit)
TTITLE3=A Moment Of Love (Sundowner Radio Edit)
TTITLE4=A Moment Of Love (Club Extended)
TTITLE5=A Moment Of Love (UK Extended)
TTITLE6=A Moment Of Love (DJ Antoine Vs. Mad Mark Reprise)
EXTD=
EXTT0=
EXTT1=
EXTT2=
EXTT3=
EXTT4=
EXTT5=
EXTT6=
PLAYORDER=
